# xmcd
#
# Track frame offsets:
#        150
#        20692
#        39612
#
# Disc length: 881 seconds
#
# Revision: 0
# Processed by: cddbd v1.5PL3 Copyright (c) Steve Scherf et al.
# Submitted via: ExactAudioCopy v0.95a4
#
DISCID=1f036f03
DTITLE=hiro:n - SWEET
DYEAR=2002
DGENRE=Pop
TTITLE0=SWEET
TTITLE1=Promises
TTITLE2=SWEET -PISTON NISHIZAWA REMIX-
EXTD=
EXTT0=
EXTT1=
EXTT2=
PLAYORDER=
